<svg xmlns="http://www.w3.org/2000/svg" xmlns:xlink="http://www.w3.org/1999/xlink" width="472.028" height="78.238" viewBox="0 0 472.028 78.238"><defs><style>.a{fill:url(#a);}.b{fill:url(#b);}.c{fill:#fff;}</style><linearGradient id="a" x1="1" y1="-0.22" x2="0" y2="1.188" gradientUnits="objectBoundingBox"><stop offset="0" stop-color="#e22721"/><stop offset="0.011" stop-color="#e22721"/><stop offset="0.948" stop-color="#c01d66"/><stop offset="1" stop-color="#4610df"/></linearGradient><linearGradient id="b" y1="1.878" x2="1.621" gradientUnits="objectBoundingBox"><stop offset="0.432" stop-color="#ee2238"/><stop offset="0.731" stop-color="#c01d66"/><stop offset="1" stop-color="#4610df"/></linearGradient></defs><path class="a" d="M244.955,77.809l-13.78-.24a35.5,35.5,0,0,1-27.688-14.925L94.911,62.624q-.866.068-1.768.068-.924,0-1.818-.068l-38.251-.007q-1,.075-2.045.075-1.029,0-2.018-.076l-24.04,0a17.255,17.255,0,0,1-2.362-.162,17.837,17.837,0,0,1-2.961.242q-6.479,0-10.022-3.728a16.011,16.011,0,0,1-4.346-11.1V35.881H2a1.993,1.993,0,0,1-1.424-.6h-.1v-.1A1.993,1.993,0,0,1,0,33.881v-10a2,2,0,0,1,2-2H5.766V14.95a2,2,0,0,1,2-2H19a2,2,0,0,1,2,2v4.495l2.261-.026q.845-.084,1.71-.085l89.075-.029a2.007,2.007,0,0,1-.045-.423v-9a2,2,0,0,1,2-2h11a2,2,0,0,1,2,2v9a2.007,2.007,0,0,1-.044.418l72.372-.024C206.7,8.095,219.708.356,232.519.581l13.78.24a30.008,30.008,0,0,1,27.166,18.431l174.455-.058c2.833,0,24.608-1.9,24.1,21.877-.15,7-1.1,11.754-2.668,14.975l.023.028-.1.126c-3.772,7.549-11,6.486-19.118,6.486l-72.535-.013q-.385.019-.776.019-.461,0-.91-.019l-43.777-.008q-.524.026-1.071.026t-1.057-.027l-58.475-.01A29.994,29.994,0,0,1,245.49,77.813C245.312,77.813,245.134,77.812,244.955,77.809Z" transform="translate(0 -0.576)"/><path class="b" d="M30,0H46.275a30,30,0,0,1,30,30V48.237a30,30,0,0,1-30,30H30c-16.569,0-32.254-13.581-32.254-30.149V29.851C-2.254,13.282,13.431,0,30,0Z" transform="translate(276.154 78.238) rotate(-180)"/><g transform="translate(-52.399 -729.271)"><path class="c" d="M82.648,786.571a10.692,10.692,0,0,1-3.773,1.7,19.148,19.148,0,0,1-4.708.568q-6.41,0-9.916-3.273t-3.505-9.615V761.2H55.2v-8.012h5.542v-8.748H71.163v8.748H80.11V761.2H71.163V775.82a4.9,4.9,0,0,0,1.168,3.506,4.327,4.327,0,0,0,3.306,1.236,6.7,6.7,0,0,0,4.206-1.335Z"/><path class="c" d="M122.378,773.283H95.2a8.462,8.462,0,0,0,3.473,5.276,11.5,11.5,0,0,0,6.81,1.936,13.781,13.781,0,0,0,4.975-.835,12.041,12.041,0,0,0,4.04-2.638l5.542,6.01q-5.075,5.81-14.824,5.81a23.435,23.435,0,0,1-10.75-2.371,17.369,17.369,0,0,1-7.212-6.577,18.119,18.119,0,0,1-2.537-9.549,18.363,18.363,0,0,1,2.5-9.515,17.543,17.543,0,0,1,6.878-6.611,21.3,21.3,0,0,1,19.331-.1,16.587,16.587,0,0,1,6.711,6.511,19.42,19.42,0,0,1,2.437,9.849Q122.579,770.678,122.378,773.283ZM98.006,761.731a8.527,8.527,0,0,0-2.938,5.476h17.695a8.621,8.621,0,0,0-2.938-5.442,8.782,8.782,0,0,0-5.876-2.036A8.971,8.971,0,0,0,98.006,761.731Z"/><path class="c" d="M136.568,786.471a17.735,17.735,0,0,1-7.145-6.577,19.017,19.017,0,0,1,0-19.1,17.745,17.745,0,0,1,7.145-6.578,22.1,22.1,0,0,1,10.316-2.37,20.006,20.006,0,0,1,9.916,2.37A14.068,14.068,0,0,1,162.977,761l-8.08,4.34a8.833,8.833,0,0,0-8.08-4.941,9.147,9.147,0,0,0-6.744,2.67,11.252,11.252,0,0,0,0,14.557,9.141,9.141,0,0,0,6.744,2.672,8.742,8.742,0,0,0,8.08-4.941l8.08,4.407a14.352,14.352,0,0,1-6.177,6.677,19.775,19.775,0,0,1-9.916,2.4A22.071,22.071,0,0,1,136.568,786.471Z"/><path class="c" d="M201.338,755.855q4.107,4.007,4.107,11.886v20.567H195.028V769.344q0-4.273-1.87-6.377a6.855,6.855,0,0,0-5.409-2.1,8.287,8.287,0,0,0-6.276,2.438q-2.339,2.438-2.337,7.245v17.762H168.719V738.761h10.417v17.361a13.857,13.857,0,0,1,5.008-3.172,18.123,18.123,0,0,1,6.41-1.1A14.789,14.789,0,0,1,201.338,755.855Z"/><path class="c" d="M247.478,755.855q4.107,4.007,4.106,11.886v20.567H241.168V769.344q0-4.273-1.87-6.377a6.857,6.857,0,0,0-5.409-2.1,8.285,8.285,0,0,0-6.276,2.438q-2.339,2.438-2.337,7.245v17.762H214.859V752.383h9.949v4.207a13.826,13.826,0,0,1,5.142-3.506,17.923,17.923,0,0,1,6.744-1.235A14.787,14.787,0,0,1,247.478,755.855Z"/><path class="c" d="M364.945,780.094v8.214H330.29V781.7l20.165-23.571h-19.7v-8.213h33.387v6.61l-20.233,23.572Z"/><path class="c" d="M398.532,755.821q4.473,3.975,4.474,11.987v20.5h-9.749v-4.474q-2.938,5.007-10.951,5.008a16.991,16.991,0,0,1-7.178-1.4,10.682,10.682,0,0,1-4.641-3.873,10.076,10.076,0,0,1-1.6-5.609,9.357,9.357,0,0,1,3.772-7.879q3.772-2.871,11.652-2.871h8.281a6.643,6.643,0,0,0-2.071-5.242q-2.07-1.836-6.21-1.836a18.118,18.118,0,0,0-5.642.9,14.905,14.905,0,0,0-4.707,2.438l-3.741-7.279a22.627,22.627,0,0,1,7.045-3.206,31.637,31.637,0,0,1,8.448-1.134Q394.058,751.849,398.532,755.821Zm-8.881,24.774a6.766,6.766,0,0,0,2.939-3.639v-3.673h-7.146q-6.41,0-6.41,4.207a3.744,3.744,0,0,0,1.569,3.172,7.069,7.069,0,0,0,4.307,1.168A9.069,9.069,0,0,0,389.651,780.595Z"/><path class="c" d="M448.612,752.383v35.925H438.73v-4.274a13.814,13.814,0,0,1-4.941,3.572,15.547,15.547,0,0,1-6.21,1.236q-7.08,0-11.219-4.073t-4.14-12.086v-20.3h10.417v18.763q0,8.682,7.279,8.681a7.825,7.825,0,0,0,6.01-2.437q2.268-2.436,2.27-7.245V752.383Z"/><path class="c" d="M473.286,753.185a18.69,18.69,0,0,1,7.311-1.336v9.615q-1.737-.132-2.336-.133a9.544,9.544,0,0,0-7.012,2.5q-2.539,2.5-2.537,7.512v16.961H458.3V752.383h9.949v4.741A11.577,11.577,0,0,1,473.286,753.185Z"/><path class="c" d="M521.464,773.283H494.286a8.454,8.454,0,0,0,3.473,5.276,11.494,11.494,0,0,0,6.81,1.936,13.785,13.785,0,0,0,4.975-.835,12.041,12.041,0,0,0,4.04-2.638l5.542,6.01q-5.074,5.81-14.824,5.81a23.435,23.435,0,0,1-10.75-2.371,17.363,17.363,0,0,1-7.212-6.577,18.111,18.111,0,0,1-2.538-9.549,18.362,18.362,0,0,1,2.5-9.515,17.55,17.55,0,0,1,6.878-6.611,21.3,21.3,0,0,1,19.331-.1,16.581,16.581,0,0,1,6.711,6.511,19.421,19.421,0,0,1,2.438,9.849Q521.664,770.678,521.464,773.283Zm-24.373-11.552a8.533,8.533,0,0,0-2.939,5.476h17.695a8.615,8.615,0,0,0-2.937-5.442,8.784,8.784,0,0,0-5.876-2.036A8.971,8.971,0,0,0,497.091,761.731Z"/><path class="c" d="M281.408,789.748c2.579,5.166,5.927,8.094,9.357,8.094s6.779-2.928,9.357-8.094Z"/><path class="c" d="M305.038,752.074a53.326,53.326,0,0,1,1.578,7.887h12.8a29.477,29.477,0,0,0-5.826-11.008H307.27A5.3,5.3,0,0,1,305.038,752.074Z"/><path class="c" d="M302.163,742.376a5.281,5.281,0,0,1,5.1,3.987h3.895a29.734,29.734,0,0,0-12.795-7.085,20.185,20.185,0,0,1,2.547,3.254A5.257,5.257,0,0,1,302.163,742.376Z"/><path class="c" d="M278.116,779.715a43.392,43.392,0,0,0,2.153,7.443h21a47,47,0,0,0,2.744-11.009H281.2A5.265,5.265,0,0,1,278.116,779.715Z"/><path class="c" d="M304.558,768.055c0-1.854-.105-3.694-.272-5.5H277.245c-.167,1.81-.272,3.648-.272,5.5,0,.544.022,1.075.037,1.61a5.278,5.278,0,0,1,4.187,3.894h23.089C304.453,771.747,304.558,769.908,304.558,768.055Z"/><path class="c" d="M277.486,748.953H267.94a29.471,29.471,0,0,0-5.827,11.008h12.794A50.985,50.985,0,0,1,277.486,748.953Z"/><path class="c" d="M297.052,746.363a5.327,5.327,0,0,1,1.569-2.616c-2.151-3.274-4.7-5.206-7.262-5.453l-.257-.013-.1,0c-.08,0-.156-.006-.231-.006l-.082,0c-3.4.046-6.718,2.964-9.277,8.09Z"/><path class="c" d="M302.163,752.944a5.278,5.278,0,0,1-5.1-3.991h-16.8a46.99,46.99,0,0,0-2.743,11.008h26.488a50.535,50.535,0,0,0-1.423-7.052C302.442,752.92,302.3,752.944,302.163,752.944Z"/><path class="c" d="M304.045,787.158H313.6a29.462,29.462,0,0,0,5.824-11.009h-12.8A51.066,51.066,0,0,1,304.045,787.158Z"/><path class="c" d="M283.214,739.252a29.732,29.732,0,0,0-12.839,7.111h8.168A24.366,24.366,0,0,1,283.214,739.252Z"/><path class="c" d="M320.022,762.551H306.885c.159,1.811.263,3.65.263,5.5s-.1,3.691-.264,5.5h13.139A28.811,28.811,0,0,0,320.022,762.551Z"/><path class="c" d="M298.309,796.866a29.749,29.749,0,0,0,12.855-7.118h-8.177A24.334,24.334,0,0,1,298.309,796.866Z"/><path class="c" d="M274.424,769.859c-.018-.6-.041-1.194-.041-1.8,0-1.856.1-3.694.263-5.5H261.51a28.851,28.851,0,0,0,0,11.008h9.478A5.192,5.192,0,0,1,274.424,769.859Z"/><path class="c" d="M275.549,780.086a5.265,5.265,0,0,1-4.561-3.937h-8.876a29.475,29.475,0,0,0,5.823,11.009h9.558A47.449,47.449,0,0,1,275.549,780.086Z"/><path class="c" d="M270.369,789.748a29.742,29.742,0,0,0,12.852,7.117,24.349,24.349,0,0,1-4.678-7.117Z"/></g></svg>