<svg width="78" height="60" viewBox="0 0 78 60" fill="none" xmlns="http://www.w3.org/2000/svg">
<path d="M74 34C76.2091 34 78 32.2091 78 30C78 27.7909 76.2091 26 74 26V34ZM1.17157 27.1716C-0.390523 28.7337 -0.390523 31.2663 1.17157 32.8284L26.6274 58.2843C28.1895 59.8464 30.7222 59.8464 32.2843 58.2843C33.8464 56.7222 33.8464 54.1895 32.2843 52.6274L9.65686 30L32.2843 7.37258C33.8464 5.81049 33.8464 3.27783 32.2843 1.71573C30.7222 0.153632 28.1895 0.153632 26.6274 1.71573L1.17157 27.1716ZM73.5 26C71.2909 26 69.5 27.7909 69.5 30C69.5 32.2091 71.2909 34 73.5 34V26ZM72.5 34C74.7091 34 76.5 32.2091 76.5 30C76.5 27.7909 74.7091 26 72.5 26V34ZM71.5 26C69.2909 26 67.5 27.7909 67.5 30C67.5 32.2091 69.2909 34 71.5 34V26ZM70.5 34C72.7091 34 74.5 32.2091 74.5 30C74.5 27.7909 72.7091 26 70.5 26V34ZM69.5 26C67.2909 26 65.5 27.7909 65.5 30C65.5 32.2091 67.2909 34 69.5 34V26ZM68.5 34C70.7091 34 72.5 32.2091 72.5 30C72.5 27.7909 70.7091 26 68.5 26V34ZM67.5 26C65.2909 26 63.5 27.7909 63.5 30C63.5 32.2091 65.2909 34 67.5 34V26ZM66.5 34C68.7091 34 70.5 32.2091 70.5 30C70.5 27.7909 68.7091 26 66.5 26V34ZM65.5 26C63.2909 26 61.5 27.7909 61.5 30C61.5 32.2091 63.2909 34 65.5 34V26ZM64.5 34C66.7091 34 68.5 32.2091 68.5 30C68.5 27.7909 66.7091 26 64.5 26V34ZM63.5 26C61.2909 26 59.5 27.7909 59.5 30C59.5 32.2091 61.2909 34 63.5 34V26ZM62.5 34C64.7091 34 66.5 32.2091 66.5 30C66.5 27.7909 64.7091 26 62.5 26V34ZM61.5 26C59.2909 26 57.5 27.7909 57.5 30C57.5 32.2091 59.2909 34 61.5 34V26ZM60.5 34C62.7091 34 64.5 32.2091 64.5 30C64.5 27.7909 62.7091 26 60.5 26V34ZM59.5 26C57.2909 26 55.5 27.7909 55.5 30C55.5 32.2091 57.2909 34 59.5 34V26ZM58.5 34C60.7091 34 62.5 32.2091 62.5 30C62.5 27.7909 60.7091 26 58.5 26V34ZM57.5 26C55.2909 26 53.5 27.7909 53.5 30C53.5 32.2091 55.2909 34 57.5 34V26ZM56.5 34C58.7091 34 60.5 32.2091 60.5 30C60.5 27.7909 58.7091 26 56.5 26V34ZM55.5 26C53.2909 26 51.5 27.7909 51.5 30C51.5 32.2091 53.2909 34 55.5 34V26ZM54.5 34C56.7091 34 58.5 32.2091 58.5 30C58.5 27.7909 56.7091 26 54.5 26V34ZM53.5 26C51.2909 26 49.5 27.7909 49.5 30C49.5 32.2091 51.2909 34 53.5 34V26ZM52.5 34C54.7091 34 56.5 32.2091 56.5 30C56.5 27.7909 54.7091 26 52.5 26V34ZM51.5 26C49.2909 26 47.5 27.7909 47.5 30C47.5 32.2091 49.2909 34 51.5 34V26ZM50.5 34C52.7091 34 54.5 32.2091 54.5 30C54.5 27.7909 52.7091 26 50.5 26V34ZM49.5 26C47.2909 26 45.5 27.7909 45.5 30C45.5 32.2091 47.2909 34 49.5 34V26ZM48.5 34C50.7091 34 52.5 32.2091 52.5 30C52.5 27.7909 50.7091 26 48.5 26V34ZM47.5 26C45.2909 26 43.5 27.7909 43.5 30C43.5 32.2091 45.2909 34 47.5 34V26ZM46.5 34C48.7091 34 50.5 32.2091 50.5 30C50.5 27.7909 48.7091 26 46.5 26V34ZM45.5 26C43.2909 26 41.5 27.7909 41.5 30C41.5 32.2091 43.2909 34 45.5 34V26ZM44.5 34C46.7091 34 48.5 32.2091 48.5 30C48.5 27.7909 46.7091 26 44.5 26V34ZM43.5 26C41.2909 26 39.5 27.7909 39.5 30C39.5 32.2091 41.2909 34 43.5 34V26ZM42.5 34C44.7091 34 46.5 32.2091 46.5 30C46.5 27.7909 44.7091 26 42.5 26V34ZM41.5 26C39.2909 26 37.5 27.7909 37.5 30C37.5 32.2091 39.2909 34 41.5 34V26ZM40.5 34C42.7091 34 44.5 32.2091 44.5 30C44.5 27.7909 42.7091 26 40.5 26V34ZM39.5 26C37.2909 26 35.5 27.7909 35.5 30C35.5 32.2091 37.2909 34 39.5 34V26ZM38.5 34C40.7091 34 42.5 32.2091 42.5 30C42.5 27.7909 40.7091 26 38.5 26V34ZM37.5 26C35.2909 26 33.5 27.7909 33.5 30C33.5 32.2091 35.2909 34 37.5 34V26ZM36.5 34C38.7091 34 40.5 32.2091 40.5 30C40.5 27.7909 38.7091 26 36.5 26V34ZM35.5 26C33.2909 26 31.5 27.7909 31.5 30C31.5 32.2091 33.2909 34 35.5 34V26ZM34.5 34C36.7091 34 38.5 32.2091 38.5 30C38.5 27.7909 36.7091 26 34.5 26V34ZM33.5 26C31.2909 26 29.5 27.7909 29.5 30C29.5 32.2091 31.2909 34 33.5 34V26ZM32.5 34C34.7091 34 36.5 32.2091 36.5 30C36.5 27.7909 34.7091 26 32.5 26V34ZM31.5 26C29.2909 26 27.5 27.7909 27.5 30C27.5 32.2091 29.2909 34 31.5 34V26ZM30.5 34C32.7091 34 34.5 32.2091 34.5 30C34.5 27.7909 32.7091 26 30.5 26V34ZM29.5 26C27.2909 26 25.5 27.7909 25.5 30C25.5 32.2091 27.2909 34 29.5 34V26ZM28.5 34C30.7091 34 32.5 32.2091 32.5 30C32.5 27.7909 30.7091 26 28.5 26V34ZM27.5 26C25.2909 26 23.5 27.7909 23.5 30C23.5 32.2091 25.2909 34 27.5 34V26ZM26.5 34C28.7091 34 30.5 32.2091 30.5 30C30.5 27.7909 28.7091 26 26.5 26V34ZM25.5 26C23.2909 26 21.5 27.7909 21.5 30C21.5 32.2091 23.2909 34 25.5 34V26ZM24.5 34C26.7091 34 28.5 32.2091 28.5 30C28.5 27.7909 26.7091 26 24.5 26V34ZM23.5 26C21.2909 26 19.5 27.7909 19.5 30C19.5 32.2091 21.2909 34 23.5 34V26ZM22.5 34C24.7091 34 26.5 32.2091 26.5 30C26.5 27.7909 24.7091 26 22.5 26V34ZM21.5 26C19.2909 26 17.5 27.7909 17.5 30C17.5 32.2091 19.2909 34 21.5 34V26ZM20.5 34C22.7091 34 24.5 32.2091 24.5 30C24.5 27.7909 22.7091 26 20.5 26V34ZM19.5 26C17.2909 26 15.5 27.7909 15.5 30C15.5 32.2091 17.2909 34 19.5 34V26ZM18.5 34C20.7091 34 22.5 32.2091 22.5 30C22.5 27.7909 20.7091 26 18.5 26V34ZM17.5 26C15.2909 26 13.5 27.7909 13.5 30C13.5 32.2091 15.2909 34 17.5 34V26ZM16.5 34C18.7091 34 20.5 32.2091 20.5 30C20.5 27.7909 18.7091 26 16.5 26V34ZM15.5 26C13.2909 26 11.5 27.7909 11.5 30C11.5 32.2091 13.2909 34 15.5 34V26ZM14.5 34C16.7091 34 18.5 32.2091 18.5 30C18.5 27.7909 16.7091 26 14.5 26V34ZM13.5 26C11.2909 26 9.5 27.7909 9.5 30C9.5 32.2091 11.2909 34 13.5 34V26ZM12.5 34C14.7091 34 16.5 32.2091 16.5 30C16.5 27.7909 14.7091 26 12.5 26V34ZM11.5 26C9.29086 26 7.5 27.7909 7.5 30C7.5 32.2091 9.29086 34 11.5 34V26ZM10.5 34C12.7091 34 14.5 32.2091 14.5 30C14.5 27.7909 12.7091 26 10.5 26V34ZM9.5 26C7.29086 26 5.5 27.7909 5.5 30C5.5 32.2091 7.29086 34 9.5 34V26ZM8.5 34C10.7091 34 12.5 32.2091 12.5 30C12.5 27.7909 10.7091 26 8.5 26V34ZM7.5 26C5.29086 26 3.5 27.7909 3.5 30C3.5 32.2091 5.29086 34 7.5 34V26ZM6.5 34C8.70914 34 10.5 32.2091 10.5 30C10.5 27.7909 8.70914 26 6.5 26V34ZM5.5 26C3.29086 26 1.5 27.7909 1.5 30C1.5 32.2091 3.29086 34 5.5 34V26ZM4.5 34C6.70914 34 8.5 32.2091 8.5 30C8.5 27.7909 6.70914 26 4.5 26V34ZM74 26H73.5V34H74V26ZM72.5 26H71.5V34H72.5V26ZM70.5 26H69.5V34H70.5V26ZM68.5 26H67.5V34H68.5V26ZM66.5 26H65.5V34H66.5V26ZM64.5 26H63.5V34H64.5V26ZM62.5 26H61.5V34H62.5V26ZM60.5 26H59.5V34H60.5V26ZM58.5 26H57.5V34H58.5V26ZM56.5 26H55.5V34H56.5V26ZM54.5 26H53.5V34H54.5V26ZM52.5 26H51.5V34H52.5V26ZM50.5 26H49.5V34H50.5V26ZM48.5 26H47.5V34H48.5V26ZM46.5 26H45.5V34H46.5V26ZM44.5 26H43.5V34H44.5V26ZM42.5 26H41.5V34H42.5V26ZM40.5 26H39.5V34H40.5V26ZM38.5 26H37.5V34H38.5V26ZM36.5 26H35.5V34H36.5V26ZM34.5 26H33.5V34H34.5V26ZM32.5 26L31.5 26V34H32.5V26ZM30.5 26H29.5V34H30.5V26ZM28.5 26H27.5V34H28.5V26ZM26.5 26H25.5V34H26.5V26ZM24.5 26H23.5V34H24.5V26ZM22.5 26H21.5V34H22.5V26ZM20.5 26H19.5V34H20.5V26ZM18.5 26H17.5V34H18.5V26ZM16.5 26H15.5V34H16.5V26ZM14.5 26H13.5V34H14.5V26ZM12.5 26H11.5V34H12.5V26ZM10.5 26H9.5V34H10.5V26ZM8.5 26H7.5V34H8.5V26ZM6.5 26H5.5V34H6.5V26ZM4.5 26H4V34H4.5V26Z" fill="white"/>
</svg>
