<svg width="36" height="36" viewBox="0 0 36 36" fill="none" xmlns="http://www.w3.org/2000/svg">
<g clip-path="url(#clip0_159_2)">
<path d="M18 36C27.9411 36 36 27.9411 36 18C36 8.05887 27.9411 0 18 0C8.05887 0 0 8.05887 0 18C0 27.9411 8.05887 36 18 36Z" fill="white"/>
<path d="M18 2C26.84 2 34 9.16 34 18C33.9991 21.3524 32.947 24.6201 30.9917 27.3432C29.0364 30.0664 26.2763 32.1077 23.1 33.18C22.3 33.34 22 32.84 22 32.42C22 31.88 22.02 30.16 22.02 28.02C22.02 26.52 21.52 25.56 20.94 25.06C24.5 24.66 28.24 23.3 28.24 17.16C28.24 15.4 27.62 13.98 26.6 12.86C26.76 12.46 27.32 10.82 26.44 8.62C26.44 8.62 25.1 8.18 22.04 10.26C20.76 9.9 19.4 9.72 18.04 9.72C16.68 9.72 15.32 9.9 14.04 10.26C10.98 8.2 9.64 8.62 9.64 8.62C8.76 10.82 9.32 12.46 9.48 12.86C8.46 13.98 7.84 15.42 7.84 17.16C7.84 23.28 11.56 24.66 15.12 25.06C14.66 25.46 14.24 26.16 14.1 27.2C13.18 27.62 10.88 28.3 9.44 25.88C9.14 25.4 8.24 24.22 6.98 24.24C5.64 24.26 6.44 25 7 25.3C7.68 25.68 8.46 27.1 8.64 27.56C8.96 28.46 10 30.18 14.02 29.44C14.02 30.78 14.04 32.04 14.04 32.42C14.04 32.84 13.74 33.32 12.94 33.18C9.75328 32.1193 6.98147 30.082 5.01778 27.3573C3.05409 24.6325 1.99824 21.3586 2 18C2 9.16 9.16 2 18 2Z" fill="black"/>
</g>
<defs>
<clipPath id="clip0_159_2">
<rect width="36" height="36" fill="white"/>
</clipPath>
</defs>
</svg>
