<svg id="Calque_1" data-name="Calque 1" xmlns="http://www.w3.org/2000/svg" viewBox="0 0 940 757.62"><defs><style>.cls-1{fill:#fff;}</style></defs><path class="cls-1" d="M278.84,890.26H204.16l82.9-109.8,0,0c1.75-2.26,2.68-5.34,2.68-9.36q0-13.8-13.8-13.8H175.8q-13.8,0-13.8,13.8t13.8,13.8h74.92L167.58,894.66l0,0c-1.75,2.26-2.68,5.34-2.68,9.36q0,13.8,13.79,13.8H278.84q13.8,0,13.8-13.8T278.84,890.26Z" transform="translate(-162 -162.19)"/><path class="cls-1" d="M435.31,766.23Q418.87,756.11,396,756.1q-23.19,0-41.09,10.42a74,74,0,0,0-28,28.77q-10.12,18.36-10.13,42.42,0,23.79,10.72,42.13a76.16,76.16,0,0,0,29.65,28.77Q376,919,400.38,919a88.72,88.72,0,0,0,28.33-5q14.82-5,24.8-12.92,5-3.81,4.7-9.1t-5.28-9.69a12.91,12.91,0,0,0-9-3.08,16.7,16.7,0,0,0-9.54,3.38A58,58,0,0,1,419,890.41a55.72,55.72,0,0,1-18.64,3.37q-16.74,0-29.65-7.34A52.91,52.91,0,0,1,344,848H455.57a13.42,13.42,0,0,0,9.69-3.67,12.31,12.31,0,0,0,3.81-9.25q0-23.19-8.66-41A66,66,0,0,0,435.31,766.23Zm-68,22.46q11.89-7.34,28.62-7.35,14.68,0,25,6.76a44.58,44.58,0,0,1,15.85,18.35,59.22,59.22,0,0,1,5.21,18H344.35a60.47,60.47,0,0,1,4.95-15.7A47.2,47.2,0,0,1,367.35,788.69Z" transform="translate(-162 -162.19)"/><path class="cls-1" d="M623.34,764.47q-16-8.65-36.26-8.66-19.37,0-34.93,8.51a66.69,66.69,0,0,0-15,11.16v-3.23a14.72,14.72,0,0,0-4.11-10.87c-2.75-2.74-6.36-4.11-10.87-4.11a14.79,14.79,0,0,0-10.71,4.11,14.44,14.44,0,0,0-4.26,10.87V903.18a15.26,15.26,0,0,0,25.84,10.71,14.79,14.79,0,0,0,4.11-10.71V820.39a32.61,32.61,0,0,1,5.87-19.23A41.73,41.73,0,0,1,558.9,787.8a49.27,49.27,0,0,1,22.31-5A53.54,53.54,0,0,1,605.14,788a39,39,0,0,1,16.59,15.71q6.15,10.56,6.16,27.3v72.22a15,15,0,1,0,29.94,0V831q0-24.36-9.24-41.1A62.49,62.49,0,0,0,623.34,764.47Z" transform="translate(-162 -162.19)"/><path class="cls-1" d="M725.35,757.27a14.77,14.77,0,0,0-10.71,4.11,14.44,14.44,0,0,0-4.26,10.87V902.88a15.26,15.26,0,0,0,25.84,10.72,14.85,14.85,0,0,0,4.1-10.72V772.25a14.11,14.11,0,0,0-15-15Z" transform="translate(-162 -162.19)"/><path class="cls-1" d="M725.35,692.4A19.55,19.55,0,1,0,739,698.12,18.63,18.63,0,0,0,725.35,692.4Z" transform="translate(-162 -162.19)"/><path class="cls-1" d="M860.53,826.79l53.88-48.09a13.6,13.6,0,0,0,4.69-9.39A14.61,14.61,0,0,0,906,754.93a12.94,12.94,0,0,0-9.83,3.81l-71.34,63.67V703a14.39,14.39,0,1,0-28.77,0V903.47a14.39,14.39,0,1,0,28.77,0V858.62l14.61-13,55.85,69a13.17,13.17,0,0,0,9.54,5.13,14.27,14.27,0,0,0,10.42-3.37c3.32-2.74,5.14-5.92,5.43-9.54a13.87,13.87,0,0,0-3.38-10.13Z" transform="translate(-162 -162.19)"/><path class="cls-1" d="M1091.28,796a79.5,79.5,0,0,0-28.91-29.21q-18.21-10.73-41.1-10.72T980,766.82A79.14,79.14,0,0,0,951,796q-10.73,18.48-10.72,41.68t9.84,41.54a76.19,76.19,0,0,0,26.86,29.07Q994,919,1015.4,919t38.45-10.71a74.61,74.61,0,0,0,18.2-16.07v10.93a15,15,0,1,0,30,0V837.71Q1102,814.52,1091.28,796ZM1048,885.42a52.95,52.95,0,0,1-53.28,0,51.87,51.87,0,0,1-18.79-19.67,57,57,0,0,1-6.9-28,57.55,57.55,0,0,1,6.9-28.33,52,52,0,0,1,18.79-19.67,52.95,52.95,0,0,1,53.28,0,51.29,51.29,0,0,1,18.5,19.67,58.58,58.58,0,0,1,6.75,28.33,58,58,0,0,1-6.75,28A51.22,51.22,0,0,1,1048,885.42Z" transform="translate(-162 -162.19)"/><path class="cls-1" d="M563.79,517.29l283-51.57C815.53,554.2,731.17,617.6,632,617.6c-125.76,0-227.7-102-227.7-227.71,0-5.6.21-11.16.6-16.67,0-.33.05-.67.08-1l.3-.05,256.13-46.43-138,138,0,0,0,0a37.24,37.24,0,0,0-2.9,5.11,35.18,35.18,0,0,0,7.22,39.82A35.58,35.58,0,0,0,546,518.42h.07a29.89,29.89,0,0,0,5.57.52,33.82,33.82,0,0,0,6.11-.57Z" transform="translate(-162 -162.19)"/><path class="cls-1" d="M859.7,389.89q0,8.66-.63,17.13L613.62,451.76,746.67,320l1.35-1.35,0,0a35.64,35.64,0,0,0,9.44-31.11,35.87,35.87,0,0,0-28.91-28.71,28.75,28.75,0,0,0-10,.05L710,260.45,417.31,313.86C448.6,225.49,532.92,162.19,632,162.19,757.76,162.19,859.7,264.14,859.7,389.89Z" transform="translate(-162 -162.19)"/></svg>