<svg width="180" height="180" viewBox="0 0 180 180" fill="none" xmlns="http://www.w3.org/2000/svg">
<path d="M120.251 45.2898C120.139 44.5825 119.75 43.9488 119.171 43.528C118.591 43.1072 117.868 42.9339 117.161 43.0461C116.454 43.1583 115.82 43.5468 115.399 44.1262C114.979 44.7057 114.805 45.4285 114.917 46.1358L115.216 48.0276C107.431 43.354 98.5003 40.936 89.4206 41.0435C80.341 41.1509 71.4699 43.7795 63.7975 48.636C62.9907 49.1475 62.4201 49.9586 62.2114 50.8907C62.0026 51.8229 62.1727 52.7999 62.6842 53.6067C63.1957 54.4135 64.0068 54.984 64.939 55.1928C65.8711 55.4016 66.8481 55.2315 67.6549 54.72C74.1096 50.6369 81.5596 48.4003 89.1958 48.2531C96.8321 48.1058 104.363 50.0535 110.97 53.8848L109.08 54.18C108.408 54.285 107.801 54.6397 107.379 55.1733C106.957 55.7068 106.752 56.3799 106.805 57.0579C106.858 57.7359 107.165 58.369 107.665 58.8305C108.164 59.2921 108.819 59.5482 109.499 59.5476C109.642 59.5468 109.784 59.5354 109.924 59.5134L119.536 57.9906C120.243 57.8769 120.875 57.4876 121.294 56.9081C121.714 56.3287 121.886 55.6064 121.774 54.9L120.251 45.2898Z" fill="url(#paint0_linear_180_56)"/>
<path d="M112.345 125.28C105.652 129.514 97.8935 131.76 89.9735 131.755C82.0535 131.75 74.2978 129.495 67.6097 125.253C67.211 124.988 66.7633 124.805 66.293 124.715C65.8227 124.625 65.3391 124.63 64.8706 124.729C64.4021 124.828 63.9581 125.019 63.5646 125.292C63.1711 125.565 62.836 125.914 62.5789 126.318C62.3218 126.722 62.1479 127.173 62.0674 127.645C61.9869 128.117 62.0013 128.601 62.1099 129.067C62.2185 129.533 62.4191 129.974 62.6999 130.361C62.9806 130.749 63.336 131.077 63.7451 131.326C71.5866 136.303 80.6814 138.949 89.9691 138.955C99.2568 138.96 108.355 136.326 116.203 131.359C116.609 131.109 116.962 130.781 117.241 130.393C117.519 130.006 117.718 129.567 117.826 129.102C117.933 128.637 117.947 128.156 117.867 127.685C117.787 127.215 117.614 126.765 117.358 126.362C117.102 125.959 116.769 125.611 116.378 125.338C115.986 125.065 115.544 124.873 115.078 124.772C114.612 124.671 114.13 124.665 113.661 124.752C113.191 124.839 112.744 125.018 112.345 125.28Z" fill="url(#paint1_linear_180_56)"/>
<path d="M53.6039 62.6869C52.7978 62.1755 51.8216 62.0052 50.89 62.2134C49.9583 62.4217 49.1475 62.9915 48.6359 63.7975C43.6796 71.6276 41.0454 80.7028 41.0391 89.9697C41.0327 99.2366 43.6544 108.315 48.5999 116.152C48.8529 116.552 49.182 116.898 49.5685 117.17C49.9551 117.442 50.3915 117.636 50.8528 117.739C51.3141 117.843 51.7913 117.855 52.2572 117.774C52.7231 117.693 53.1685 117.521 53.5679 117.268C53.9674 117.015 54.3132 116.686 54.5855 116.3C54.8577 115.913 55.0512 115.477 55.1548 115.015C55.2585 114.554 55.2702 114.077 55.1894 113.611C55.1086 113.145 54.9369 112.7 54.6839 112.3C50.4692 105.618 48.2348 97.877 48.2399 89.9761C48.245 82.0753 50.4894 74.3376 54.7127 67.6603C54.9669 67.261 55.1398 66.8156 55.2217 66.3495C55.3035 65.8833 55.2926 65.4056 55.1896 64.9437C55.0866 64.4817 54.8936 64.0446 54.6215 63.6574C54.3494 63.2702 54.0036 62.9404 53.6039 62.6869Z" fill="url(#paint2_linear_180_56)"/>
<path d="M126.36 62.64C125.555 63.1528 124.986 63.9644 124.779 64.8964C124.572 65.8284 124.744 66.8044 125.257 67.6098C129.498 74.2983 131.752 82.0541 131.757 89.9741C131.761 97.8941 129.515 105.652 125.28 112.345C125.019 112.744 124.839 113.191 124.752 113.661C124.665 114.13 124.672 114.612 124.772 115.078C124.873 115.545 125.065 115.986 125.338 116.378C125.611 116.769 125.959 117.102 126.362 117.358C126.765 117.614 127.215 117.787 127.685 117.867C128.156 117.947 128.637 117.933 129.102 117.826C129.567 117.718 130.006 117.519 130.393 117.241C130.781 116.962 131.109 116.609 131.359 116.203C136.326 108.355 138.961 99.2569 138.955 89.9692C138.949 80.6815 136.303 71.5868 131.326 63.7452C130.814 62.9406 130.003 62.3723 129.072 62.1651C128.141 61.9579 127.165 62.1287 126.36 62.64Z" fill="url(#paint3_linear_180_56)"/>
<defs>
<linearGradient id="paint0_linear_180_56" x1="91.9658" y1="41.04" x2="91.9658" y2="59.5476" gradientUnits="userSpaceOnUse">
<stop stop-color="#EE2238"/>
<stop offset="1" stop-color="#BF1D67"/>
</linearGradient>
<linearGradient id="paint1_linear_180_56" x1="89.9672" y1="124.651" x2="89.9672" y2="138.955" gradientUnits="userSpaceOnUse">
<stop stop-color="#EE2238"/>
<stop offset="1" stop-color="#BF1D67"/>
</linearGradient>
<linearGradient id="paint2_linear_180_56" x1="48.1575" y1="62.1267" x2="48.1575" y2="117.827" gradientUnits="userSpaceOnUse">
<stop stop-color="#EE2238"/>
<stop offset="1" stop-color="#BF1D67"/>
</linearGradient>
<linearGradient id="paint3_linear_180_56" x1="131.823" y1="62.0791" x2="131.823" y2="117.918" gradientUnits="userSpaceOnUse">
<stop stop-color="#EE2238"/>
<stop offset="1" stop-color="#BF1D67"/>
</linearGradient>
</defs>
</svg>
