<svg width="180" height="180" viewBox="0 0 180 180" fill="none" xmlns="http://www.w3.org/2000/svg">
<path d="M138.906 140.976V112.705C138.906 98.2135 127.116 86.4253 112.626 86.4253H93.6001V39.0241C94.9067 38.2373 95.9196 37.0441 96.4837 35.627C97.0479 34.21 97.1323 32.6471 96.724 31.1776C96.3157 29.708 95.4372 28.4127 94.2229 27.4897C93.0086 26.5668 91.5253 26.0671 90.0001 26.0671C88.4749 26.0671 86.9916 26.5668 85.7773 27.4897C84.563 28.4127 83.6845 29.708 83.2762 31.1776C82.8679 32.6471 82.9523 34.21 83.5164 35.627C84.0806 37.0441 85.0935 38.2373 86.4001 39.0241V86.4235H67.3759C52.8841 86.4235 41.0959 98.2135 41.0959 112.704V140.906C39.7893 141.693 38.7764 142.886 38.2122 144.303C37.6481 145.72 37.5637 147.283 37.972 148.752C38.3803 150.222 39.2588 151.517 40.4731 152.44C41.6874 153.363 43.1707 153.863 44.6959 153.863C46.2211 153.863 47.7044 153.363 48.9187 152.44C50.133 151.517 51.0115 150.222 51.4198 148.752C51.8281 147.283 51.7437 145.72 51.1795 144.303C50.6154 142.886 49.6025 141.693 48.2959 140.906V112.705C48.3021 107.647 50.3143 102.797 53.8911 99.2205C57.468 95.6437 62.3175 93.6315 67.3759 93.6253H86.4001V140.906C85.0935 141.693 84.0806 142.886 83.5164 144.303C82.9523 145.72 82.8679 147.283 83.2762 148.752C83.6845 150.222 84.563 151.517 85.7773 152.44C86.9916 153.363 88.4749 153.863 90.0001 153.863C91.5253 153.863 93.0086 153.363 94.2229 152.44C95.4372 151.517 96.3157 150.222 96.724 148.752C97.1323 147.283 97.0479 145.72 96.4837 144.303C95.9196 142.886 94.9067 141.693 93.6001 140.906V93.6235H112.624C117.683 93.6297 122.532 95.6419 126.109 99.2187C129.686 102.796 131.698 107.645 131.704 112.704V140.976C130.397 141.763 129.384 142.956 128.819 144.374C128.255 145.791 128.17 147.355 128.579 148.825C128.987 150.295 129.866 151.591 131.08 152.514C132.295 153.437 133.779 153.937 135.304 153.937C136.83 153.937 138.314 153.437 139.528 152.514C140.743 151.591 141.622 150.295 142.03 148.825C142.438 147.355 142.354 145.791 141.789 144.374C141.225 142.956 140.211 141.763 138.904 140.976H138.906Z" fill="url(#paint0_linear_180_63)"/>
<defs>
<linearGradient id="paint0_linear_180_63" x1="90.001" y1="26.0671" x2="90.001" y2="153.937" gradientUnits="userSpaceOnUse">
<stop stop-color="#EE2238"/>
<stop offset="1" stop-color="#BF1D67"/>
</linearGradient>
</defs>
</svg>
