<svg width="122" height="123" viewBox="0 0 122 123" fill="none" xmlns="http://www.w3.org/2000/svg">
<path d="M100.478 71.6426C102.08 70.0304 103.35 68.1145 104.214 66.0054C105.078 63.8963 105.52 61.6357 105.514 59.3537C105.514 49.7535 97.7671 41.943 88.245 41.943H78.5045C77.47 33.285 70.15 26.5508 61.283 26.5508H60.307C51.5621 26.5508 44.3067 33.1091 43.1282 41.6048L33.5573 41.7155C29.0118 41.7679 24.6701 43.6252 21.4742 46.8844C18.2783 50.1436 16.4859 54.5418 16.4858 59.1249V59.5529C16.4858 64.1701 18.3049 68.5982 21.543 71.8632C24.781 75.1283 29.1729 76.9629 33.7525 76.9636H33.8172L35.6947 76.9562L24.4854 89.4321C23.4875 89.2382 22.4541 89.3781 21.5423 89.8306C20.6305 90.2831 19.8902 91.0234 19.4339 91.9389C18.9777 92.8544 18.8304 93.8951 19.0145 94.9027C19.1986 95.9104 19.704 96.8298 20.4539 97.5214C21.2038 98.2129 22.1572 98.6386 23.169 98.7338C24.1809 98.829 25.1959 98.5885 26.0598 98.0488C26.9237 97.5092 27.5891 96.6999 27.955 95.744C28.3209 94.7881 28.3672 93.7379 28.0868 92.7531L42.301 76.9353L58.56 76.875V90.0422C57.6941 90.578 57.0255 91.3843 56.6558 92.3383C56.286 93.2924 56.2354 94.342 56.5115 95.3278C56.7877 96.3135 57.3755 97.1814 58.1857 97.7994C58.9958 98.4175 59.984 98.7519 61 98.7519C62.0159 98.7519 63.0041 98.4175 63.8143 97.7994C64.6245 97.1814 65.2123 96.3135 65.4884 95.3278C65.7646 94.342 65.7139 93.2924 65.3442 92.3383C64.9744 91.3843 64.3058 90.578 63.44 90.0422V76.8553L79.4732 76.7963L93.94 92.7236C93.6521 93.7076 93.6909 94.7596 94.0505 95.7193C94.41 96.6791 95.0707 97.4942 95.932 98.0407C96.7933 98.5871 97.8081 98.835 98.8219 98.7465C99.8358 98.6581 100.793 98.2382 101.549 97.5507C102.304 96.8633 102.816 95.9459 103.007 94.9381C103.197 93.9303 103.056 92.8873 102.605 91.9677C102.154 91.0481 101.417 90.3023 100.507 89.8437C99.5965 89.3851 98.5625 89.2388 97.5622 89.4272L86.0673 76.7729L88.3072 76.7643C90.5707 76.7623 92.8114 76.3087 94.9003 75.4297C96.9891 74.5506 98.8847 73.2636 100.478 71.6426ZM33.8001 72.0436H33.7537C32.1268 72.0436 30.5158 71.7205 29.0128 71.0927C27.5098 70.465 26.1441 69.5449 24.9937 68.3851C23.8434 67.2252 22.9309 65.8482 22.3085 64.3328C21.686 62.8174 21.3657 61.1932 21.3658 59.5529V59.1249C21.3659 55.8371 22.6517 52.682 24.9443 50.3439C27.2369 48.0058 30.3514 46.6733 33.6122 46.6355L45.4279 46.494C46.0701 46.4866 46.6836 46.2241 47.1351 45.7636C47.5867 45.303 47.8399 44.6816 47.8398 44.034C47.8447 40.7027 49.1598 37.5093 51.4967 35.1541C53.8336 32.799 57.0016 31.4744 60.3058 31.4708H61.2818C64.5861 31.474 67.7543 32.7985 70.0913 35.1538C72.4283 37.509 73.7432 40.7026 73.7478 44.034V44.403C73.7478 45.0554 74.0048 45.6811 74.4624 46.1425C74.92 46.6038 75.5406 46.863 76.1878 46.863H88.245C91.5308 46.857 94.6844 48.1672 97.012 50.5053C99.3397 52.8435 100.651 56.0182 100.657 59.3309C100.663 62.6436 99.3631 65.8231 97.044 68.1698C94.7248 70.5165 91.576 71.8383 88.2902 71.8443L33.8001 72.0436Z" fill="url(#paint0_linear_18_624)"/>
<defs>
<linearGradient id="paint0_linear_18_624" x1="61" y1="26.5508" x2="61" y2="98.7641" gradientUnits="userSpaceOnUse">
<stop stop-color="#EE2238"/>
<stop offset="1" stop-color="#BF1D67"/>
</linearGradient>
</defs>
</svg>
