<svg width="180" height="180" viewBox="0 0 180 180" fill="none" xmlns="http://www.w3.org/2000/svg">
<path d="M147.632 104.807C149.971 102.453 151.824 99.6563 153.086 96.5773C154.348 93.4983 154.993 90.1981 154.984 86.8667C154.984 72.8518 143.675 61.4496 129.774 61.4496H115.554C114.044 48.8103 103.358 38.9792 90.4132 38.9792H88.9884C76.222 38.9792 65.6303 48.5535 63.9098 60.9558L49.9377 61.1175C43.3019 61.194 36.9637 63.9054 32.2981 68.6634C27.6326 73.4213 25.0159 79.8421 25.0159 86.5327V87.1575C25.0159 93.8979 27.6715 100.362 32.3986 105.129C37.1256 109.895 43.5371 112.574 50.2227 112.575H50.3171L53.0581 112.564L36.694 130.777C35.2372 130.494 33.7286 130.698 32.3975 131.359C31.0665 132.019 29.9857 133.1 29.3196 134.436C28.6535 135.773 28.4386 137.292 28.7073 138.763C28.9761 140.234 29.714 141.576 30.8087 142.586C31.9034 143.595 33.2952 144.217 34.7724 144.356C36.2496 144.495 37.7313 144.144 38.9925 143.356C40.2536 142.568 41.2251 141.387 41.7592 139.991C42.2933 138.596 42.3609 137.063 41.9516 135.625L62.7023 112.533L86.438 112.445V131.667C85.174 132.45 84.1979 133.627 83.6581 135.019C83.1183 136.412 83.0444 137.945 83.4475 139.384C83.8506 140.823 84.7088 142.09 85.8915 142.992C87.0743 143.894 88.5169 144.382 90 144.382C91.4832 144.382 92.9258 143.894 94.1085 142.992C95.2912 142.09 96.1494 140.823 96.5525 139.384C96.9557 137.945 96.8817 136.412 96.3419 135.019C95.8022 133.627 94.8261 132.45 93.5621 131.667V112.417L116.968 112.33L138.088 135.582C137.667 137.018 137.724 138.554 138.249 139.955C138.774 141.356 139.738 142.546 140.996 143.344C142.253 144.142 143.734 144.504 145.215 144.374C146.695 144.245 148.092 143.632 149.195 142.629C150.298 141.625 151.045 140.286 151.324 138.815C151.602 137.343 151.396 135.821 150.738 134.478C150.079 133.136 149.003 132.047 147.674 131.378C146.345 130.708 144.836 130.495 143.375 130.77L126.595 112.296L129.865 112.284C133.169 112.281 136.44 111.619 139.489 110.335C142.539 109.052 145.306 107.173 147.632 104.807ZM50.2921 105.392H50.2245C47.8494 105.392 45.4976 104.92 43.3034 104.004C41.1092 103.088 39.1155 101.744 37.4362 100.051C35.7568 98.3579 34.4248 96.3478 33.516 94.1355C32.6073 91.9232 32.1397 89.5521 32.14 87.1575V86.5327C32.1401 81.7331 34.0172 77.1271 37.364 73.7138C40.7109 70.3005 45.2576 68.3552 50.0179 68.2999L67.267 68.0934C68.2046 68.0826 69.1002 67.6994 69.7594 67.0271C70.4185 66.3548 70.7882 65.4475 70.7881 64.5022C70.7952 59.6389 72.715 54.977 76.1266 51.5389C79.5381 48.1007 84.1629 46.167 88.9866 46.1617H90.4114C95.2353 46.1665 99.8603 48.1001 103.272 51.5383C106.684 54.9766 108.603 59.6388 108.61 64.5022V65.0409C108.61 65.9933 108.985 66.9068 109.653 67.5803C110.321 68.2538 111.227 68.6321 112.172 68.6321H129.774C134.571 68.6233 139.174 70.536 142.572 73.9494C145.97 77.3628 147.884 81.9973 147.893 86.8334C147.902 91.6695 146.005 96.3111 142.619 99.7369C139.233 103.163 134.636 105.092 129.84 105.101L50.2921 105.392Z" fill="url(#paint0_linear_180_12)"/>
<defs>
<linearGradient id="paint0_linear_180_12" x1="90.0001" y1="38.9792" x2="90.0001" y2="144.4" gradientUnits="userSpaceOnUse">
<stop stop-color="#EE2238"/>
<stop offset="1" stop-color="#BF1D67"/>
</linearGradient>
</defs>
</svg>
