<svg width="180" height="180" viewBox="0 0 180 180" fill="none" xmlns="http://www.w3.org/2000/svg">
<path d="M130.3 28.1717C129.635 28.837 129.107 29.6269 128.746 30.4964C128.386 31.3658 128.201 32.2976 128.201 33.2387C128.201 34.1798 128.386 35.1117 128.746 35.9811C129.107 36.8505 129.635 37.6405 130.3 38.3057L130.351 38.3525L111.94 106.933L111.884 106.949L73.1268 68.1893C73.4809 66.9754 73.5074 65.6894 73.2037 64.4619C72.9 63.2344 72.2769 62.1091 71.3977 61.2003C70.5184 60.2915 69.4144 59.6315 68.1976 59.2874C66.9808 58.9433 65.6946 58.9274 64.4696 59.2411C63.2446 59.5549 62.1245 60.1872 61.2229 61.0739C60.3214 61.9606 59.6705 63.0701 59.3364 64.2896C59.0024 65.5092 58.997 66.7955 59.3208 68.0179C59.6446 69.2402 60.2861 70.3551 61.1802 71.2493L61.2306 71.2961L42.8202 139.876C41.2945 140.274 39.9424 141.164 38.9733 142.407C38.0043 143.651 37.4722 145.18 37.4596 146.756C37.4469 148.333 37.9544 149.87 38.9034 151.129C39.8524 152.388 41.19 153.299 42.7092 153.721C44.2283 154.143 45.8443 154.053 47.3068 153.464C48.7694 152.875 49.997 151.82 50.7997 150.463C51.6023 149.106 51.9352 147.522 51.7468 145.957C51.5583 144.391 50.8591 142.932 49.7574 141.804L68.1282 73.3715L106.816 112.061C106.499 113.273 106.506 114.547 106.836 115.756C107.166 116.964 107.806 118.065 108.694 118.949C109.582 119.833 110.686 120.469 111.896 120.793C113.106 121.118 114.38 121.119 115.591 120.798C116.801 120.476 117.907 119.843 118.797 118.961C119.686 118.079 120.33 116.979 120.662 115.771C120.994 114.564 121.004 113.29 120.691 112.077C120.377 110.864 119.751 109.754 118.876 108.859L137.329 40.1399C138.382 39.8402 139.352 39.3034 140.165 38.5707C140.977 37.8379 141.612 36.9287 142.019 35.9128C142.426 34.8969 142.595 33.8012 142.512 32.7099C142.43 31.6186 142.099 30.5606 141.545 29.6171C140.99 28.6736 140.227 27.8696 139.313 27.2669C138.4 26.6642 137.36 26.2787 136.275 26.14C135.189 26.0014 134.086 26.1132 133.051 26.4669C132.015 26.8207 131.074 27.4069 130.3 28.1807V28.1717Z" fill="url(#paint0_linear_180_21)"/>
<defs>
<linearGradient id="paint0_linear_180_21" x1="89.996" y1="26.0823" x2="89.996" y2="153.983" gradientUnits="userSpaceOnUse">
<stop stop-color="#EE2238"/>
<stop offset="1" stop-color="#BF1D67"/>
</linearGradient>
</defs>
</svg>
