<svg width="178" height="178" viewBox="0 0 178 178" fill="none" xmlns="http://www.w3.org/2000/svg">
<path d="M133.899 145.839H44.1013C43.1571 145.839 42.2516 146.214 41.584 146.882C40.9163 147.549 40.5413 148.455 40.5413 149.399C40.5413 150.343 40.9163 151.249 41.584 151.916C42.2516 152.584 43.1571 152.959 44.1013 152.959H133.899C134.843 152.959 135.748 152.584 136.416 151.916C137.084 151.249 137.459 150.343 137.459 149.399C137.459 148.455 137.084 147.549 136.416 146.882C135.748 146.214 134.843 145.839 133.899 145.839Z" fill="url(#paint0_linear_180_67)"/>
<path d="M46.6004 73.9482L85.44 36.9242V82.3196C85.44 82.566 85.4656 82.8118 85.5166 83.0529C84.2419 83.8152 83.2525 84.9745 82.7 86.353C82.1475 87.7316 82.0624 89.2533 82.4578 90.6849C82.8532 92.1165 83.7073 93.3788 84.889 94.2784C86.0707 95.178 87.5149 95.6651 89 95.6651C90.4852 95.6651 91.9293 95.178 93.1111 94.2784C94.2928 93.3788 95.1468 92.1165 95.5422 90.6849C95.9376 89.2533 95.8525 87.7316 95.3 86.353C94.7475 84.9745 93.7581 83.8152 92.4835 83.0529C92.5344 82.8118 92.5601 82.566 92.56 82.3196V37.1307L131.353 75.504C131.684 75.8416 132.078 76.1101 132.513 76.2938C132.949 76.4775 133.416 76.5727 133.889 76.5739C134.361 76.5751 134.829 76.4823 135.265 76.3008C135.701 76.1194 136.097 75.8529 136.429 75.5169C136.761 75.181 137.023 74.7823 137.2 74.3441C137.376 73.9059 137.464 73.4369 137.457 72.9645C137.451 72.4922 137.35 72.0258 137.162 71.5927C136.973 71.1595 136.7 70.7682 136.359 70.4416L91.5027 26.0716C90.8444 25.4205 89.9584 25.0515 89.0325 25.0429C88.1067 25.0342 87.214 25.3866 86.5436 26.0253L41.6876 68.7951C41.0144 69.449 40.6266 70.3422 40.6086 71.2805C40.5905 72.2187 40.9437 73.1262 41.5912 73.8054C42.2388 74.4847 43.1284 74.8807 44.0665 74.9075C45.0045 74.9342 45.9152 74.5895 46.6004 73.9482Z" fill="url(#paint1_linear_180_67)"/>
<defs>
<linearGradient id="paint0_linear_180_67" x1="89" y1="145.839" x2="89" y2="152.959" gradientUnits="userSpaceOnUse">
<stop stop-color="#EE2238"/>
<stop offset="1" stop-color="#BF1D67"/>
</linearGradient>
<linearGradient id="paint1_linear_180_67" x1="89.0328" y1="25.0427" x2="89.0328" y2="95.6651" gradientUnits="userSpaceOnUse">
<stop stop-color="#EE2238"/>
<stop offset="1" stop-color="#BF1D67"/>
</linearGradient>
</defs>
</svg>
