<svg width="180" height="180" viewBox="0 0 180 180" fill="none" xmlns="http://www.w3.org/2000/svg">
<path d="M140.864 53.3123C140.148 52.68 139.21 52.3581 138.257 52.4173C137.303 52.4766 136.413 52.9122 135.78 53.6282C135.148 54.3443 134.826 55.2823 134.885 56.2357C134.945 57.1892 135.38 58.08 136.096 58.7123C140.479 62.6041 143.987 67.3808 146.389 72.7275C148.791 78.0742 150.032 83.8694 150.031 89.7309C150.029 95.5923 148.785 101.387 146.38 106.732C143.976 112.078 140.465 116.853 136.08 120.742C135.725 121.055 135.436 121.435 135.228 121.86C135.021 122.285 134.899 122.747 134.869 123.219C134.84 123.692 134.904 124.165 135.058 124.612C135.211 125.06 135.452 125.473 135.765 125.827C136.078 126.182 136.458 126.471 136.883 126.679C137.308 126.887 137.77 127.009 138.242 127.038C138.714 127.067 139.188 127.003 139.635 126.849C140.083 126.696 140.495 126.455 140.85 126.142C146.004 121.58 150.131 115.975 152.958 109.699C155.785 103.423 157.248 96.619 157.25 89.7357C157.252 82.8524 155.793 76.0471 152.97 69.7695C150.146 63.492 146.023 57.8851 140.872 53.3195L140.864 53.3123Z" fill="url(#paint0_linear_180_69)"/>
<path d="M121.752 128.992C114.314 131.471 106.325 131.791 98.712 129.913C109.185 122.783 116.465 111.85 119.005 99.4374C119.186 98.5059 118.992 97.5407 118.465 96.7516C117.938 95.9625 117.121 95.4134 116.191 95.2236C115.262 95.0338 114.295 95.2187 113.501 95.7382C112.706 96.2576 112.15 97.0695 111.951 97.9974C110.776 103.738 108.398 109.164 104.973 113.918C101.548 118.672 97.154 122.645 92.0808 125.577C91.3968 125.973 90.7032 126.347 90 126.698C89.298 126.346 88.6044 125.972 87.9192 125.577C82.8457 122.645 78.4514 118.671 75.0263 113.916C71.6012 109.162 69.2232 103.735 68.049 97.9938C67.8504 97.0659 67.2936 96.254 66.4995 95.7346C65.7054 95.2151 64.7384 95.0302 63.8087 95.22C62.879 95.4098 62.0619 95.9589 61.5349 96.748C61.008 97.5371 60.8139 98.5023 60.9948 99.4338C63.5363 111.849 70.8198 122.784 81.297 129.913C73.6844 131.791 65.6954 131.471 58.257 128.992C57.3553 128.704 56.3765 128.783 55.5326 129.212C54.6887 129.64 54.0476 130.384 53.748 131.282C53.4484 132.18 53.5144 133.159 53.9318 134.009C54.3492 134.858 55.0844 135.509 55.9782 135.821C67.094 139.529 79.1747 139.101 90 134.615C100.828 139.103 112.912 139.531 124.031 135.821C124.925 135.509 125.66 134.858 126.077 134.009C126.495 133.159 126.561 132.18 126.261 131.282C125.961 130.384 125.32 129.64 124.476 129.212C123.633 128.783 122.654 128.704 121.752 128.992Z" fill="url(#paint1_linear_180_69)"/>
<path d="M58.257 50.4199C65.6965 47.9447 73.6852 47.6288 81.2969 49.5091C70.8106 56.6406 63.5208 67.5824 60.9785 80.0065C60.7879 80.9419 60.9767 81.9148 61.5033 82.7111C62.0298 83.5074 62.8512 84.0619 63.7866 84.2527C64.0234 84.3017 64.2647 84.3265 64.5066 84.3265C65.3355 84.3254 66.1387 84.0383 66.7805 83.5136C67.4223 82.9888 67.8634 82.2587 68.0292 81.4465C69.2872 75.3113 71.9171 69.5404 75.722 64.5659C79.5269 59.5914 84.4081 55.5424 89.9999 52.7221C95.5896 55.5435 100.468 59.5928 104.271 64.5669C108.074 69.5409 110.703 75.3109 111.96 81.4447C112.126 82.2569 112.567 82.987 113.209 83.5118C113.85 84.0365 114.654 84.3236 115.483 84.3247C115.724 84.3247 115.966 84.2999 116.203 84.2509C117.138 84.0601 117.959 83.5056 118.486 82.7093C119.012 81.913 119.201 80.9401 119.011 80.0047C116.47 67.5827 109.184 56.6418 98.7012 49.5091C106.313 47.6288 114.302 47.9447 121.741 50.4199C122.192 50.5801 122.67 50.6489 123.147 50.6223C123.625 50.5957 124.092 50.4742 124.522 50.265C124.952 50.0557 125.336 49.7628 125.652 49.4035C125.968 49.0441 126.209 48.6255 126.361 48.172C126.513 47.7185 126.573 47.2393 126.537 46.7623C126.502 46.2854 126.372 45.8202 126.155 45.394C125.938 44.9679 125.638 44.5892 125.273 44.2802C124.908 43.9712 124.485 43.738 124.029 43.5943C113.48 40.0825 102.048 40.2826 91.6289 44.1613C91.0889 44.3665 90.5345 44.5843 89.9927 44.8093C89.4527 44.5843 88.9127 44.3665 88.3565 44.1613C77.9373 40.2826 66.5051 40.0825 55.9566 43.5943C55.5004 43.738 55.0774 43.9712 54.7124 44.2802C54.3474 44.5892 54.0475 44.9679 53.8305 45.394C53.6134 45.8202 53.4834 46.2854 53.4482 46.7623C53.4129 47.2393 53.473 47.7185 53.625 48.172C53.777 48.6255 54.0178 49.0441 54.3334 49.4035C54.649 49.7628 55.0331 50.0557 55.4631 50.265C55.8932 50.4742 56.3606 50.5957 56.8381 50.6223C57.3157 50.6489 57.7937 50.5801 58.2443 50.4199H58.257Z" fill="url(#paint2_linear_180_69)"/>
<path d="M43.92 120.742C39.5305 116.855 36.0157 112.081 33.6078 106.735C31.1998 101.389 29.9536 95.593 29.9514 89.7298C29.9492 83.8666 31.191 78.0697 33.5949 72.7219C35.9988 67.3742 39.51 62.5973 43.8966 58.707C44.2512 58.3939 44.5406 58.014 44.7484 57.5891C44.9561 57.1641 45.0782 56.7024 45.1075 56.2303C45.1368 55.7582 45.0729 55.285 44.9193 54.8376C44.7658 54.3902 44.5256 53.9774 44.2125 53.6229C43.8994 53.2683 43.5195 52.9789 43.0946 52.7711C42.6697 52.5633 42.208 52.4413 41.7359 52.412C41.2638 52.3826 40.7905 52.4466 40.3431 52.6001C39.8957 52.7537 39.483 52.9939 39.1284 53.307C33.9805 57.8746 29.8599 63.4821 27.0387 69.7594C24.2175 76.0367 22.7598 82.841 22.7618 89.7231C22.7639 96.6053 24.2256 103.409 27.0506 109.684C29.8755 115.96 33.9994 121.565 39.15 126.13C39.5046 126.443 39.9173 126.683 40.3648 126.837C40.8122 126.99 41.2855 127.054 41.7577 127.025C42.2299 126.996 42.6917 126.874 43.1168 126.666C43.5418 126.459 43.9218 126.169 44.235 125.815C44.5482 125.46 44.7885 125.047 44.9422 124.6C45.0958 124.152 45.1599 123.679 45.1306 123.207C45.1014 122.735 44.9794 122.273 44.7717 121.848C44.564 121.423 44.2746 121.043 43.92 120.73V120.742Z" fill="url(#paint3_linear_180_69)"/>
<defs>
<linearGradient id="paint0_linear_180_69" x1="146.056" y1="52.4104" x2="146.056" y2="127.045" gradientUnits="userSpaceOnUse">
<stop stop-color="#EE2238"/>
<stop offset="1" stop-color="#BF1D67"/>
</linearGradient>
<linearGradient id="paint1_linear_180_69" x1="90.0045" y1="95.1472" x2="90.0045" y2="138.323" gradientUnits="userSpaceOnUse">
<stop stop-color="#EE2238"/>
<stop offset="1" stop-color="#BF1D67"/>
</linearGradient>
<linearGradient id="paint2_linear_180_69" x1="89.9927" y1="41.0989" x2="89.9927" y2="84.3265" gradientUnits="userSpaceOnUse">
<stop stop-color="#EE2238"/>
<stop offset="1" stop-color="#BF1D67"/>
</linearGradient>
<linearGradient id="paint3_linear_180_69" x1="33.9497" y1="52.405" x2="33.9497" y2="127.032" gradientUnits="userSpaceOnUse">
<stop stop-color="#EE2238"/>
<stop offset="1" stop-color="#BF1D67"/>
</linearGradient>
</defs>
</svg>
