<svg width="180" height="181" viewBox="0 0 180 181" fill="none" xmlns="http://www.w3.org/2000/svg">
<path d="M100.451 38.4693L90.415 26.4584C90.0768 26.058 89.6563 25.7365 89.1828 25.5161C88.7092 25.2956 88.1938 25.1814 87.6722 25.1814C87.1506 25.1814 86.6352 25.2956 86.1617 25.5161C85.6881 25.7365 85.2677 26.058 84.9295 26.4584L74.8952 38.4693C65.1586 50.1218 59.8188 64.8681 59.8188 80.1043C59.8188 95.3406 65.1586 110.087 74.8952 121.739L84.1227 132.79L84.0888 149.968C84.0888 150.921 84.4641 151.834 85.1321 152.508C85.8001 153.181 86.7061 153.56 87.6509 153.56C88.5956 153.56 89.5016 153.181 90.1696 152.508C90.8376 151.834 91.2129 150.921 91.2129 149.968L91.2467 132.73L100.448 121.718C110.183 110.065 115.522 95.3187 115.522 80.0828C115.522 64.8468 110.183 50.1007 100.448 38.4477L100.451 38.4693ZM70.1879 61.0205L84.0924 75.0371V95.9812L66.9607 78.7091C67.1092 72.6787 68.1983 66.7094 70.1879 61.0205ZM91.2467 75.0622L105.157 61.0384C107.165 66.7844 108.254 72.8158 108.384 78.9066C108.337 78.9497 108.289 78.9892 108.245 79.0341L91.2467 96.1697V75.0622ZM94.9958 43.1002C97.7985 46.456 100.21 50.1251 102.182 54.0355C101.937 54.1846 101.71 54.3624 101.505 54.5652L91.2467 64.9044V38.6093L94.9958 43.1002ZM80.338 43.1002L84.087 38.6111V64.8811L73.4526 54.1612C73.3724 54.0804 73.2887 54.005 73.2032 53.9332C75.1677 50.0595 77.5631 46.4239 80.3433 43.0966L80.338 43.1002ZM80.338 117.116C73.7819 109.26 69.4311 99.7773 67.7373 89.6534L84.087 106.139V121.599L80.338 117.116ZM94.9958 117.116L91.2467 121.605V106.342L107.561 89.8958C105.837 99.9287 101.503 109.32 95.0011 117.112L94.9958 117.116Z" fill="url(#paint0_linear_180_2)"/>
<defs>
<linearGradient id="paint0_linear_180_2" x1="87.6705" y1="25.1814" x2="87.6705" y2="153.56" gradientUnits="userSpaceOnUse">
<stop stop-color="#EE2238"/>
<stop offset="1" stop-color="#BF1D67"/>
</linearGradient>
</defs>
</svg>
