<svg width="122" height="123" viewBox="0 0 122 123" fill="none" xmlns="http://www.w3.org/2000/svg">
<path d="M68.159 25.8866L61.2843 17.6591C61.0526 17.3849 60.7646 17.1647 60.4402 17.0137C60.1158 16.8626 59.7628 16.7844 59.4055 16.7844C59.0482 16.7844 58.6952 16.8626 58.3708 17.0137C58.0464 17.1647 57.7584 17.3849 57.5267 17.6591L50.6532 25.8866C43.9836 33.8686 40.3259 43.9698 40.3259 54.4066C40.3259 64.8435 43.9836 74.9447 50.6532 82.9266L56.974 90.4961L56.9509 102.263C56.9509 102.916 57.2079 103.542 57.6655 104.003C58.1231 104.464 58.7437 104.723 59.3909 104.723C60.038 104.723 60.6586 104.464 61.1162 104.003C61.5738 103.542 61.8309 102.916 61.8309 102.263L61.854 90.4555L68.1566 82.9119C74.8255 74.9296 78.4827 64.8285 78.4827 54.3919C78.4827 43.9552 74.8255 33.8542 68.1566 25.8719L68.159 25.8866ZM47.4288 41.3342L56.9533 50.9356V65.2823L45.2181 53.4509C45.3198 49.3201 46.0658 45.2311 47.4288 41.3342ZM61.854 50.9528L71.3822 41.3465C72.7579 45.2825 73.504 49.414 73.5929 53.5862C73.5612 53.6157 73.5282 53.6428 73.4977 53.6735L61.854 65.4114V50.9528ZM64.4221 29.0588C66.342 31.3575 67.9937 33.8709 69.3448 36.5495C69.1767 36.6516 69.0211 36.7734 68.8812 36.9123L61.854 43.9947V25.9826L64.4221 29.0588ZM54.3815 29.0588L56.9496 25.9838V43.9787L49.665 36.6356C49.6101 36.5802 49.5528 36.5286 49.4942 36.4794C50.8399 33.8259 52.4808 31.3355 54.3852 29.0563L54.3815 29.0588ZM54.3815 79.7594C49.8906 74.3779 46.9103 67.8826 45.75 60.9478L56.9496 72.2404V82.8307L54.3815 79.7594ZM64.4221 79.7594L61.854 82.8344V72.3794L73.0292 61.1138C71.8484 67.9863 68.8795 74.4197 64.4258 79.7569L64.4221 79.7594Z" fill="url(#paint0_linear_18_628)"/>
<defs>
<linearGradient id="paint0_linear_18_628" x1="59.4043" y1="16.7844" x2="59.4043" y2="104.723" gradientUnits="userSpaceOnUse">
<stop stop-color="#EE2238"/>
<stop offset="1" stop-color="#BF1D67"/>
</linearGradient>
</defs>
</svg>
