<svg width="180" height="180" viewBox="0 0 180 180" fill="none" xmlns="http://www.w3.org/2000/svg">
<path d="M109.274 84.1104C108.103 84.7868 107.158 85.7955 106.559 87.0089C105.961 88.2223 105.736 89.5859 105.912 90.9273C106.089 92.2686 106.659 93.5275 107.552 94.5446C108.444 95.5618 109.617 96.2915 110.924 96.6415C112.231 96.9915 113.613 96.9461 114.894 96.511C116.175 96.0759 117.298 95.2706 118.121 94.1971C118.945 93.1235 119.431 91.8299 119.519 90.4799C119.607 89.1298 119.293 87.7839 118.616 86.6124C117.709 85.0421 116.215 83.8964 114.463 83.4272C112.712 82.958 110.845 83.2038 109.274 84.1104Z" fill="url(#paint0_linear_180_73)"/>
<path d="M138.96 141.273V51.2207C138.96 36.9719 127.177 25.3799 112.694 25.3799C98.2116 25.3799 86.427 36.9719 86.427 51.2207V128.783C86.427 139.061 77.8734 147.422 67.3614 147.422C56.8494 147.422 48.294 139.061 48.294 128.783V38.7503C49.5523 37.9565 50.5175 36.7741 51.0432 35.3823C51.569 33.9906 51.6266 32.4653 51.2074 31.0379C50.7882 29.6104 49.915 28.3585 48.7202 27.472C47.5254 26.5856 46.0741 26.1128 44.5864 26.1254C43.0987 26.1381 41.6557 26.6354 40.4761 27.5421C39.2966 28.4488 38.4448 29.7153 38.0499 31.1497C37.655 32.5841 37.7386 34.1081 38.2879 35.4908C38.8372 36.8734 39.8224 38.0392 41.094 38.8115V128.783C41.094 143.03 52.8768 154.62 67.3614 154.62C81.846 154.62 93.627 143.028 93.627 128.781V51.2207C93.627 40.9409 102.181 32.5799 112.694 32.5799C123.208 32.5799 131.76 40.9409 131.76 51.2207V141.3C130.498 142.087 129.526 143.264 128.993 144.653C128.46 146.042 128.394 147.567 128.806 148.997C129.218 150.427 130.084 151.683 131.274 152.576C132.465 153.469 133.913 153.949 135.401 153.944C136.889 153.939 138.335 153.449 139.519 152.549C140.703 151.649 141.562 150.386 141.964 148.954C142.366 147.522 142.291 145.997 141.749 144.612C141.207 143.226 140.228 142.055 138.96 141.276V141.273Z" fill="url(#paint1_linear_180_73)"/>
<defs>
<linearGradient id="paint0_linear_180_73" x1="112.694" y1="83.1943" x2="112.694" y2="96.8744" gradientUnits="userSpaceOnUse">
<stop stop-color="#EE2238"/>
<stop offset="1" stop-color="#BF1D67"/>
</linearGradient>
<linearGradient id="paint1_linear_180_73" x1="90.0117" y1="25.3799" x2="90.0117" y2="154.62" gradientUnits="userSpaceOnUse">
<stop stop-color="#EE2238"/>
<stop offset="1" stop-color="#BF1D67"/>
</linearGradient>
</defs>
</svg>
