<svg width="180" height="180" viewBox="0 0 180 180" fill="none" xmlns="http://www.w3.org/2000/svg">
<path d="M104.569 138.047H73.6776C72.7228 138.047 71.8071 137.668 71.132 136.993C70.4569 136.318 70.0776 135.402 70.0776 134.447V117.081C60.1775 112.506 52.1537 104.663 47.3542 94.8695C42.5547 85.0762 41.2719 73.9295 43.7215 63.302C46.171 52.6745 52.2036 43.2139 60.8057 36.5095C69.4078 29.8052 80.0552 26.2657 90.9592 26.4857C101.863 26.7058 112.359 30.6719 120.684 37.7177C129.008 44.7636 134.654 54.4599 136.673 65.1775C138.692 75.8952 136.961 86.9811 131.77 96.5728C126.579 106.165 118.246 113.678 108.169 117.85V134.447C108.169 135.402 107.79 136.318 107.115 136.993C106.44 137.668 105.524 138.047 104.569 138.047ZM77.2776 130.847H100.969V115.38C100.969 114.634 101.201 113.907 101.632 113.299C102.063 112.69 102.672 112.231 103.376 111.983C112.276 108.851 119.794 102.694 124.62 94.5869C129.447 86.4793 131.274 76.9351 129.784 67.6182C128.295 58.3013 123.583 49.8027 116.469 43.6041C109.356 37.4055 100.292 33.9 90.8594 33.6988C81.4263 33.4976 72.2218 36.6135 64.8506 42.5033C57.4794 48.393 52.4091 56.683 50.5236 65.9279C48.6381 75.1728 50.0571 84.7862 54.5331 93.0922C59.0092 101.398 66.2583 107.87 75.0168 111.379C75.6841 111.646 76.2561 112.107 76.6591 112.703C77.062 113.298 77.2774 114.001 77.2776 114.719V130.847Z" fill="url(#paint0_linear_180_75)"/>
<path d="M103.669 154.44H72.7776C71.8228 154.44 70.9072 154.061 70.232 153.386C69.5569 152.71 69.1776 151.795 69.1776 150.84C69.1776 149.885 69.5569 148.97 70.232 148.294C70.9072 147.619 71.8228 147.24 72.7776 147.24H103.669C104.624 147.24 105.54 147.619 106.215 148.294C106.89 148.97 107.269 149.885 107.269 150.84C107.269 151.795 106.89 152.71 106.215 153.386C105.54 154.061 104.624 154.44 103.669 154.44Z" fill="url(#paint1_linear_180_75)"/>
<defs>
<linearGradient id="paint0_linear_180_75" x1="90.0011" y1="26.4761" x2="90.0011" y2="138.047" gradientUnits="userSpaceOnUse">
<stop stop-color="#EE2238"/>
<stop offset="1" stop-color="#BF1D67"/>
</linearGradient>
<linearGradient id="paint1_linear_180_75" x1="88.2234" y1="147.24" x2="88.2234" y2="154.44" gradientUnits="userSpaceOnUse">
<stop stop-color="#EE2238"/>
<stop offset="1" stop-color="#BF1D67"/>
</linearGradient>
</defs>
</svg>
