<svg width="180" height="180" viewBox="0 0 180 180" fill="none" xmlns="http://www.w3.org/2000/svg">
<path d="M90.0468 138.186C93.8642 138.186 96.9588 135.091 96.9588 131.274C96.9588 127.457 93.8642 124.362 90.0468 124.362C86.2294 124.362 83.1348 127.457 83.1348 131.274C83.1348 135.091 86.2294 138.186 90.0468 138.186Z" fill="url(#paint0_linear_180_77)"/>
<path d="M113.994 24.6599H66.6234C60.7181 24.6593 55.052 26.9937 50.861 31.154C46.67 35.3144 44.294 40.9631 44.2512 46.8683L43.632 129.74C43.6101 132.692 44.1727 135.62 45.2874 138.353C46.402 141.087 48.0466 143.573 50.1264 145.668C52.2062 147.763 54.68 149.426 57.4054 150.561C60.1308 151.696 63.0538 152.28 66.006 152.28H113.994C119.926 152.273 125.613 149.914 129.808 145.719C134.003 141.525 136.363 135.838 136.37 129.906V47.0339C136.363 41.1018 134.003 35.4148 129.808 31.2204C125.613 27.0259 119.926 24.6666 113.994 24.6599ZM129.17 129.906C129.165 133.929 127.565 137.786 124.72 140.631C121.875 143.476 118.017 145.076 113.994 145.08H66.006C64.0039 145.08 62.0216 144.684 60.1733 143.914C58.325 143.145 56.6472 142.017 55.2367 140.596C53.8262 139.175 52.7108 137.489 51.9549 135.635C51.1989 133.782 50.8173 131.796 50.832 129.794L51.4494 46.9223C51.4896 42.9207 53.1047 39.096 55.9449 36.2767C58.7851 33.4574 62.6216 31.8706 66.6234 31.8599H113.994C118.017 31.8642 121.875 33.4642 124.72 36.3089C127.565 39.1536 129.165 43.0107 129.17 47.0339V129.906Z" fill="url(#paint1_linear_180_77)"/>
<defs>
<linearGradient id="paint0_linear_180_77" x1="90.0468" y1="124.362" x2="90.0468" y2="138.186" gradientUnits="userSpaceOnUse">
<stop stop-color="#EE2238"/>
<stop offset="1" stop-color="#BF1D67"/>
</linearGradient>
<linearGradient id="paint1_linear_180_77" x1="90.0006" y1="24.6599" x2="90.0006" y2="152.28" gradientUnits="userSpaceOnUse">
<stop stop-color="#EE2238"/>
<stop offset="1" stop-color="#BF1D67"/>
</linearGradient>
</defs>
</svg>
