<svg width="181" height="180" viewBox="0 0 181 180" fill="none" xmlns="http://www.w3.org/2000/svg">
<path d="M135.538 147.429H45.1049C44.1525 147.429 43.239 147.808 42.5655 148.481C41.892 149.155 41.5137 150.068 41.5137 151.021C41.5137 151.973 41.892 152.887 42.5655 153.56C43.239 154.234 44.1525 154.612 45.1049 154.612H135.538C136.49 154.612 137.404 154.234 138.077 153.56C138.751 152.887 139.129 151.973 139.129 151.021C139.129 150.068 138.751 149.155 138.077 148.481C137.404 147.808 136.49 147.429 135.538 147.429Z" fill="url(#paint0_linear_180_16)"/>
<path d="M135.538 70.5156H98.9392L124.819 44.6372C125.153 44.3036 125.418 43.9076 125.598 43.4718C125.779 43.036 125.872 42.569 125.872 42.0973C125.872 41.6255 125.779 41.1585 125.598 40.7227C125.418 40.2869 125.153 39.8909 124.819 39.5573C124.486 39.2238 124.09 38.9592 123.654 38.7787C123.218 38.5982 122.751 38.5053 122.28 38.5053C121.808 38.5053 121.341 38.5982 120.905 38.7787C120.469 38.9592 120.073 39.2238 119.74 39.5573L93.8612 65.4358V28.8393C93.8612 27.8868 93.4828 26.9734 92.8094 26.2999C92.1359 25.6264 91.2224 25.248 90.27 25.248C89.3175 25.248 88.4041 25.6264 87.7306 26.2999C87.0571 26.9734 86.6787 27.8868 86.6787 28.8393V65.4376L60.8002 39.5573C60.1266 38.8837 59.213 38.5053 58.2603 38.5053C57.3077 38.5053 56.3941 38.8837 55.7204 39.5573C55.0468 40.231 54.6684 41.1446 54.6684 42.0973C54.6684 43.0499 55.0468 43.9635 55.7204 44.6372L81.6007 70.5156H45.0024C44.0499 70.5156 43.1365 70.894 42.463 71.5675C41.7895 72.241 41.4111 73.1544 41.4111 74.1069C41.4111 75.0593 41.7895 75.9728 42.463 76.6463C43.1365 77.3198 44.0499 77.6981 45.0024 77.6981H81.6007L55.7204 103.577C55.047 104.25 54.6688 105.164 54.669 106.116C54.6692 107.069 55.0477 107.982 55.7213 108.656C56.395 109.329 57.3085 109.707 58.261 109.707C59.2135 109.707 60.1269 109.328 60.8002 108.655L86.6787 82.7761V119.374C86.6787 120.327 87.0571 121.24 87.7306 121.914C88.4041 122.587 89.3175 122.966 90.27 122.966C91.2224 122.966 92.1359 122.587 92.8094 121.914C93.4828 121.24 93.8612 120.327 93.8612 119.374V82.7761L119.74 108.655C120.413 109.328 121.326 109.707 122.279 109.707C123.231 109.707 124.145 109.329 124.819 108.656C125.492 107.982 125.871 107.069 125.871 106.116C125.871 105.164 125.493 104.25 124.819 103.577L98.9392 77.6981H135.538C136.49 77.6981 137.403 77.3198 138.077 76.6463C138.75 75.9728 139.129 75.0593 139.129 74.1069C139.129 73.1544 138.75 72.241 138.077 71.5675C137.403 70.894 136.49 70.5156 135.538 70.5156Z" fill="url(#paint1_linear_180_16)"/>
<defs>
<linearGradient id="paint0_linear_180_16" x1="90.3213" y1="147.429" x2="90.3213" y2="154.612" gradientUnits="userSpaceOnUse">
<stop stop-color="#EE2238"/>
<stop offset="1" stop-color="#BF1D67"/>
</linearGradient>
<linearGradient id="paint1_linear_180_16" x1="90.27" y1="25.248" x2="90.27" y2="122.966" gradientUnits="userSpaceOnUse">
<stop stop-color="#EE2238"/>
<stop offset="1" stop-color="#BF1D67"/>
</linearGradient>
</defs>
</svg>
