<svg width="180" height="180" viewBox="0 0 180 180" fill="none" xmlns="http://www.w3.org/2000/svg">
<path d="M142.983 112.968C142.02 112.411 140.933 112.105 139.821 112.078C138.71 112.051 137.609 112.304 136.62 112.813L98.8003 90.9791C98.837 90.654 98.8557 90.3271 98.8561 89.9999C98.8561 89.7047 98.8417 89.4113 98.8129 89.1233L136.62 67.2947C137.897 67.9512 139.352 68.1766 140.767 67.9374C142.183 67.6982 143.483 67.0071 144.473 65.9675C145.463 64.9279 146.09 63.5958 146.26 62.1702C146.43 60.7447 146.134 59.3025 145.416 58.0592C144.699 56.8159 143.597 55.8384 142.278 55.2729C140.958 54.7075 139.491 54.5844 138.096 54.9221C136.7 55.2598 135.452 56.0402 134.537 57.1465C133.622 58.2528 133.09 59.6256 133.02 61.0595L95.2471 82.8665C94.7342 82.4888 94.182 82.1677 93.6001 81.9089V38.3003C94.8075 37.5228 95.7307 36.3752 96.2316 35.0293C96.7326 33.6834 96.7843 32.2115 96.379 30.8337C95.9738 29.456 95.1334 28.2465 93.9835 27.3861C92.8337 26.5257 91.4362 26.0608 90.0001 26.0608C88.5639 26.0608 87.1664 26.5257 86.0166 27.3861C84.8667 28.2465 84.0263 29.456 83.6211 30.8337C83.2158 32.2115 83.2675 33.6834 83.7685 35.0293C84.2694 36.3752 85.1926 37.5228 86.4001 38.3003V81.9089C85.8181 82.1677 85.2659 82.4888 84.7531 82.8665L46.9801 61.0595C46.9102 59.6256 46.378 58.2528 45.4631 57.1465C44.5481 56.0402 43.2996 55.2598 41.9043 54.9221C40.5089 54.5844 39.0418 54.7075 37.7222 55.2729C36.4026 55.8384 35.3016 56.8159 34.5837 58.0592C33.8659 59.3025 33.5699 60.7447 33.7399 62.1702C33.9099 63.5958 34.5369 64.9279 35.527 65.9675C36.5171 67.0071 37.8172 67.6982 39.2328 67.9374C40.6483 68.1766 42.1033 67.9512 43.3801 67.2947L81.1801 89.1233C81.1513 89.4113 81.1369 89.7047 81.1369 89.9999C81.1372 90.3271 81.1559 90.654 81.1927 90.9791L43.3801 112.813C42.1033 112.157 40.6483 111.931 39.2328 112.17C37.8172 112.41 36.5171 113.101 35.527 114.14C34.5369 115.18 33.9099 116.512 33.7399 117.938C33.5699 119.363 33.8659 120.805 34.5837 122.049C35.3016 123.292 36.4026 124.269 37.7222 124.835C39.0418 125.4 40.5089 125.523 41.9043 125.186C43.2996 124.848 44.5481 124.068 45.4631 122.961C46.378 121.855 46.9102 120.482 46.9801 119.048L84.8359 97.1999C85.3254 97.5521 85.8495 97.8537 86.4001 98.0999V141.808C85.1926 142.585 84.2694 143.733 83.7685 145.079C83.2675 146.424 83.2158 147.896 83.6211 149.274C84.0263 150.652 84.8667 151.861 86.0166 152.722C87.1664 153.582 88.5639 154.047 90.0001 154.047C91.4362 154.047 92.8337 153.582 93.9835 152.722C95.1334 151.861 95.9738 150.652 96.379 149.274C96.7843 147.896 96.7326 146.424 96.2316 145.079C95.7307 143.733 94.8075 142.585 93.6001 141.808V98.0999C94.1506 97.8537 94.6747 97.5521 95.1643 97.1999L133.02 119.048C133.076 120.2 133.431 121.318 134.05 122.291C134.668 123.264 135.529 124.059 136.548 124.599C137.567 125.139 138.709 125.404 139.862 125.369C141.015 125.334 142.138 125 143.123 124.399C144.107 123.798 144.918 122.952 145.476 121.943C146.034 120.934 146.321 119.797 146.306 118.644C146.292 117.491 145.979 116.361 145.396 115.366C144.813 114.371 143.982 113.544 142.983 112.968Z" fill="url(#paint0_linear_180_71)"/>
<defs>
<linearGradient id="paint0_linear_180_71" x1="90.0001" y1="26.0608" x2="90.0001" y2="154.047" gradientUnits="userSpaceOnUse">
<stop stop-color="#EE2238"/>
<stop offset="1" stop-color="#BF1D67"/>
</linearGradient>
</defs>
</svg>
