<svg width="180" height="180" viewBox="0 0 180 180" fill="none" xmlns="http://www.w3.org/2000/svg">
<path d="M65.1504 27.2876C62.9286 28.0311 62.0235 28.747 57.1137 33.6485C51.2438 39.4862 50.5307 40.45 49.8175 43.7543L49.653 44.4978L45.6209 44.6355C41.2596 44.7732 40.1625 45.021 37.3099 46.4804C34.0458 48.1326 31.6869 51.2993 30.5349 55.5674C29.8217 58.1834 29.8217 68.9226 30.5349 71.5385C31.6595 75.6965 33.7166 78.6154 36.871 80.4603L38.6813 81.5342V105.656C38.6813 120.526 38.791 130.687 38.9556 132.119C39.8333 139.333 42.494 144.95 46.4712 148.035C49.5432 150.403 54.1513 152.082 59.5274 152.771C61.1183 152.991 71.1848 153.046 91.3452 152.964C117.677 152.881 121.051 152.826 122.889 152.413C128.457 151.146 131.501 149.632 134.546 146.575C137.152 143.959 138.66 141.206 139.73 137.075C140.91 132.449 140.992 130.163 140.992 105.16V81.5342L142.802 80.4603C145.984 78.5878 148.261 75.5038 149.413 71.4835C150.071 69.1704 150.208 60.4689 149.659 57.2196C148.645 51.3268 145.408 47.3341 140.059 45.4341C138.441 44.8558 137.426 44.6906 134.162 44.5804L130.185 44.4152L129.883 43.0384C129.28 40.4224 128.649 39.5688 123.19 34.034C116.662 27.4528 116.031 27.0673 111.917 27.0673C107.611 27.0673 107.474 27.1774 98.0105 36.65L89.9737 44.663L81.937 36.65C72.7483 27.4253 72.3643 27.1774 68.4419 27.0122C67.1253 26.9572 65.8087 27.0948 65.1504 27.2876ZM72.8031 39.9543C75.162 42.2123 77.0821 44.1674 77.0821 44.3051C77.0821 44.4427 73.3243 44.5529 68.0305 44.5529C63.0658 44.5529 58.9789 44.4703 58.9789 44.3601C58.9789 44.25 60.8715 42.2398 63.1755 39.9268C66.3299 36.7326 67.4819 35.7413 67.9482 35.7963C68.2773 35.8514 70.4716 37.7239 72.8031 39.9543ZM116.772 39.9268C119.076 42.2398 120.969 44.2225 120.969 44.3326C120.969 44.4703 116.854 44.5529 111.862 44.5529H102.728L107.117 40.1471C109.86 37.3934 111.698 35.7413 112.054 35.7413C112.383 35.7413 114.166 37.3384 116.772 39.9268ZM138.167 54.108C139.456 54.7964 140.196 55.7327 140.745 57.3573C141.266 58.8718 141.266 68.124 140.745 69.8863C140.224 71.6487 138.688 73.053 136.823 73.4661C135.753 73.6864 122.916 73.7414 89.0137 73.6864L42.6585 73.6038L41.4791 72.9429C40.6014 72.4197 40.1351 71.869 39.559 70.74C38.8185 69.2255 38.8185 69.1429 38.8185 63.6907C38.8185 57.6051 39.0653 56.366 40.5465 54.9341C42.2471 53.3095 39.2573 53.3921 90.248 53.4471L137.015 53.5022L138.167 54.108ZM67.7562 97.0097L67.8933 111.329L68.6339 112.843C70.6088 116.891 75.162 119.314 79.3587 118.626C81.4433 118.295 82.2662 117.882 86.0788 115.349C87.9166 114.137 89.6172 113.118 89.864 113.118C90.0835 113.118 91.7841 114.137 93.6218 115.376C97.6539 118.075 99.3819 118.736 102.235 118.543C106.898 118.268 110.765 114.826 111.643 110.117C111.807 109.263 111.917 103.26 111.917 95.6053V82.5531H122.066H132.242L132.132 107.253C132.023 134.734 132.077 133.853 130.157 137.819C128.649 140.93 126.235 142.637 122.066 143.629C120.173 144.069 117.567 144.097 89.8366 144.097C61.6943 144.097 59.5274 144.069 57.5525 143.601C52.149 142.335 49.5707 139.774 48.0895 134.211C47.6781 132.724 47.6232 129.75 47.5409 107.529L47.4312 82.5531L57.5251 82.6081L67.619 82.6907L67.7562 97.0097ZM103.085 95.4125C103.112 103.178 103.03 108.382 102.865 108.823C102.728 109.236 102.317 109.594 101.878 109.704C101.302 109.842 100.644 109.539 98.1202 107.804C93.7041 104.775 92.8264 104.444 89.8366 104.472C86.8194 104.472 86.2708 104.692 81.8822 107.611C78.6181 109.787 77.5484 110.172 76.8626 109.484C76.6158 109.236 76.5335 105.821 76.5335 95.8531V82.5531L89.7817 82.6081L103.003 82.6907L103.085 95.4125Z" fill="url(#paint0_linear_192_5)"/>
<defs>
<linearGradient id="paint0_linear_192_5" x1="90" y1="153" x2="90" y2="27" gradientUnits="userSpaceOnUse">
<stop stop-color="#EE2238"/>
<stop offset="1" stop-color="#BF1D67"/>
</linearGradient>
</defs>
</svg>
