<svg width="123" height="123" viewBox="0 0 123 123" fill="none" xmlns="http://www.w3.org/2000/svg">
<path d="M92.5083 100.839H30.5618C29.9094 100.839 29.2837 101.098 28.8223 101.56C28.361 102.021 28.1018 102.647 28.1018 103.299C28.1018 103.952 28.361 104.577 28.8223 105.039C29.2837 105.5 29.9094 105.759 30.5618 105.759H92.5083C93.1607 105.759 93.7864 105.5 94.2478 105.039C94.7091 104.577 94.9683 103.952 94.9683 103.299C94.9683 102.647 94.7091 102.021 94.2478 101.56C93.7864 101.098 93.1607 100.839 92.5083 100.839Z" fill="url(#paint0_linear_18_630)"/>
<path d="M92.5083 48.1533H67.4384L85.1664 30.4266C85.3949 30.1981 85.5761 29.9268 85.6998 29.6283C85.8234 29.3298 85.8871 29.0098 85.8871 28.6867C85.8871 28.3636 85.8234 28.0437 85.6998 27.7451C85.5761 27.4466 85.3949 27.1754 85.1664 26.9469C84.9379 26.7184 84.6667 26.5372 84.3682 26.4135C84.0696 26.2899 83.7497 26.2262 83.4266 26.2262C83.1035 26.2262 82.7835 26.2899 82.485 26.4135C82.1865 26.5372 81.9152 26.7184 81.6867 26.9469L63.96 44.6737V19.605C63.96 18.9526 63.7008 18.3269 63.2395 17.8655C62.7781 17.4042 62.1524 17.145 61.5 17.145C60.8475 17.145 60.2218 17.4042 59.7605 17.8655C59.2992 18.3269 59.04 18.9526 59.04 19.605V44.6749L41.3132 26.9469C40.8518 26.4855 40.2259 26.2262 39.5734 26.2262C38.9208 26.2262 38.295 26.4855 37.8335 26.9469C37.3721 27.4083 37.1129 28.0342 37.1129 28.6867C37.1129 29.3393 37.3721 29.9651 37.8335 30.4266L55.5615 48.1533H30.4917C29.8392 48.1533 29.2135 48.4125 28.7522 48.8738C28.2909 49.3352 28.0317 49.9609 28.0317 50.6133C28.0317 51.2657 28.2909 51.8915 28.7522 52.3528C29.2135 52.8141 29.8392 53.0733 30.4917 53.0733H55.5615L37.8335 70.8001C37.3723 71.2615 37.1132 71.8873 37.1133 72.5397C37.1134 73.1922 37.3727 73.8179 37.8342 74.2791C38.2956 74.7404 38.9214 74.9995 39.5738 74.9994C40.2263 74.9992 40.8519 74.74 41.3132 74.2785L59.04 56.5518V81.6216C59.04 82.274 59.2992 82.8998 59.7605 83.3611C60.2218 83.8224 60.8475 84.0816 61.5 84.0816C62.1524 84.0816 62.7781 83.8224 63.2395 83.3611C63.7008 82.8998 63.96 82.274 63.96 81.6216V56.5518L81.6867 74.2785C82.148 74.74 82.7737 74.9992 83.4261 74.9994C84.0786 74.9995 84.7044 74.7404 85.1658 74.2791C85.6272 73.8179 85.8865 73.1922 85.8866 72.5397C85.8867 71.8873 85.6277 71.2615 85.1664 70.8001L67.4384 53.0733H92.5083C93.1607 53.0733 93.7864 52.8141 94.2478 52.3528C94.7091 51.8915 94.9683 51.2657 94.9683 50.6133C94.9683 49.9609 94.7091 49.3352 94.2478 48.8738C93.7864 48.4125 93.1607 48.1533 92.5083 48.1533Z" fill="url(#paint1_linear_18_630)"/>
<defs>
<linearGradient id="paint0_linear_18_630" x1="61.5351" y1="100.839" x2="61.5351" y2="105.759" gradientUnits="userSpaceOnUse">
<stop stop-color="#EE2238"/>
<stop offset="1" stop-color="#BF1D67"/>
</linearGradient>
<linearGradient id="paint1_linear_18_630" x1="61.5" y1="17.145" x2="61.5" y2="84.0816" gradientUnits="userSpaceOnUse">
<stop stop-color="#EE2238"/>
<stop offset="1" stop-color="#BF1D67"/>
</linearGradient>
</defs>
</svg>
